<svg xmlns="http://www.w3.org/2000/svg" viewBox="0 0 1400 500" preserveAspectRatio="xMidYMid slice">
  <defs>
    <linearGradient id="g1" x1="0" y1="0" x2="1" y2="1">
      <stop offset="0%" stop-color="#667eea"/>
      <stop offset="100%" stop-color="#764ba2"/>
    </linearGradient>
  </defs>
  <rect width="1400" height="500" fill="url(#g1)"/>
  <circle cx="1180" cy="120" r="180" fill="#ffffff" opacity="0.08"/>
  <circle cx="1280" cy="430" r="100" fill="#ffffff" opacity="0.10"/>
  <circle cx="60" cy="450" r="120" fill="#ffffff" opacity="0.06"/>

  <text x="100" y="130" font-family="sans-serif" font-size="22" font-weight="700" fill="#fbbf24" letter-spacing="6">SLIDE 01 - NEW COURSE</text>
  <text x="100" y="230" font-family="sans-serif" font-size="80" font-weight="800" fill="#ffffff">AI MATH MASTERY</text>
  <text x="100" y="290" font-family="sans-serif" font-size="32" font-weight="500" fill="#ffffff" opacity="0.9">เรียนคณิต ป.1 - ป.6 พร้อมระบบ AI ส่วนตัว</text>

  <rect x="100" y="350" width="420" height="78" rx="39" fill="#ffffff"/>
  <text x="135" y="402" font-family="sans-serif" font-size="40" font-weight="800" fill="#6366f1">฿1,990</text>
  <text x="310" y="398" font-family="sans-serif" font-size="24" fill="#94a3b8" text-decoration="line-through">฿3,990</text>
  <rect x="430" y="370" width="68" height="38" rx="19" fill="#ef4444"/>
  <text x="464" y="397" text-anchor="middle" font-family="sans-serif" font-size="20" font-weight="800" fill="#ffffff">-50%</text>

  <g transform="translate(960, 110)">
    <line x1="140" y1="-10" x2="140" y2="40" stroke="#ffffff" stroke-width="6" opacity="0.5"/>
    <circle cx="140" cy="-12" r="10" fill="#fbbf24"/>
    <rect x="40" y="40" width="200" height="200" rx="32" fill="#ffffff" opacity="0.18"/>
    <circle cx="100" cy="120" r="22" fill="#fbbf24"/>
    <circle cx="180" cy="120" r="22" fill="#fbbf24"/>
    <rect x="95" y="180" width="90" height="14" rx="7" fill="#ffffff"/>
    <text x="-30" y="80" font-family="serif" font-size="60" font-weight="800" fill="#ffffff" opacity="0.45">π</text>
    <text x="290" y="220" font-family="serif" font-size="64" font-weight="800" fill="#ffffff" opacity="0.45">∑</text>
    <text x="-40" y="260" font-family="serif" font-size="46" font-weight="800" fill="#fbbf24" opacity="0.7">+</text>
  </g>
</svg>
