<svg xmlns="http://www.w3.org/2000/svg" viewBox="0 0 1400 500" preserveAspectRatio="xMidYMid slice">
  <defs>
    <linearGradient id="g5" x1="0" y1="0" x2="1" y2="1">
      <stop offset="0%" stop-color="#10b981"/>
      <stop offset="100%" stop-color="#0d9488"/>
    </linearGradient>
  </defs>
  <rect width="1400" height="500" fill="url(#g5)"/>
  <circle cx="1180" cy="100" r="180" fill="#ffffff" opacity="0.08"/>
  <circle cx="100" cy="430" r="140" fill="#ffffff" opacity="0.08"/>

  <text x="100" y="130" font-family="sans-serif" font-size="22" font-weight="700" fill="#fbbf24" letter-spacing="6">SLIDE 05 - GUARANTEE 65+</text>
  <text x="100" y="230" font-family="sans-serif" font-size="80" font-weight="800" fill="#ffffff">TCAS BOOTCAMP</text>
  <text x="100" y="290" font-family="sans-serif" font-size="32" font-weight="500" fill="#ffffff" opacity="0.9">เตรียมสอบเข้ามหาวิทยาลัย ครูจุฬา/มหิดล</text>

  <rect x="100" y="350" width="430" height="78" rx="39" fill="#ffffff"/>
  <text x="135" y="402" font-family="sans-serif" font-size="40" font-weight="800" fill="#0d9488">฿5,990</text>
  <text x="305" y="398" font-family="sans-serif" font-size="24" fill="#94a3b8" text-decoration="line-through">฿8,990</text>
  <rect x="430" y="370" width="78" height="38" rx="19" fill="#ef4444"/>
  <text x="469" y="397" text-anchor="middle" font-family="sans-serif" font-size="18" font-weight="800" fill="#ffffff">-33%</text>

  <g transform="translate(960, 130)">
    <polygon points="120,0 240,60 120,120 0,60" fill="#ffffff"/>
    <polygon points="120,0 240,60 120,120 0,60" fill="none" stroke="#0d9488" stroke-width="3"/>
    <rect x="60" y="120" width="120" height="60" rx="6" fill="#ffffff" opacity="0.92"/>
    <rect x="60" y="120" width="120" height="10" fill="#fbbf24" opacity="0.9"/>
    <line x1="240" y1="60" x2="290" y2="180" stroke="#fbbf24" stroke-width="6" stroke-linecap="round"/>
    <circle cx="290" cy="190" r="14" fill="#fbbf24"/>
    <text x="-50" y="40" font-family="sans-serif" font-size="40" font-weight="800" fill="#fbbf24" opacity="0.85">★</text>
    <text x="290" y="240" font-family="sans-serif" font-size="44" font-weight="800" fill="#fbbf24" opacity="0.85">★</text>
    <text x="-30" y="240" font-family="sans-serif" font-size="32" font-weight="800" fill="#fbbf24" opacity="0.65">★</text>
  </g>
</svg>
