<svg xmlns="http://www.w3.org/2000/svg" viewBox="0 0 1400 500" preserveAspectRatio="xMidYMid slice">
  <defs>
    <linearGradient id="g2" x1="0" y1="0" x2="1" y2="1">
      <stop offset="0%" stop-color="#fb7185"/>
      <stop offset="100%" stop-color="#f97316"/>
    </linearGradient>
  </defs>
  <rect width="1400" height="500" fill="url(#g2)"/>
  <circle cx="100" cy="100" r="160" fill="#ffffff" opacity="0.08"/>
  <circle cx="1300" cy="400" r="140" fill="#ffffff" opacity="0.10"/>

  <text x="100" y="130" font-family="sans-serif" font-size="22" font-weight="700" fill="#fef3c7" letter-spacing="6">SLIDE 02 - BEST SELLER</text>
  <text x="100" y="230" font-family="sans-serif" font-size="80" font-weight="800" fill="#ffffff">MATH 24 PREMIUM</text>
  <text x="100" y="290" font-family="sans-serif" font-size="32" font-weight="500" fill="#ffffff" opacity="0.9">เกมคิดเลขเร็ว 24 รูปแบบ แข่งขันออนไลน์</text>

  <rect x="100" y="350" width="420" height="78" rx="39" fill="#ffffff"/>
  <text x="135" y="402" font-family="sans-serif" font-size="40" font-weight="800" fill="#f97316">฿590</text>
  <text x="270" y="402" font-family="sans-serif" font-size="22" font-weight="500" fill="#94a3b8">/ เดือน</text>
  <text x="375" y="398" font-family="sans-serif" font-size="22" fill="#94a3b8" text-decoration="line-through">฿890</text>

  <g transform="translate(880, 130)">
    <g transform="translate(0,30) rotate(-10 50 70)">
      <rect width="100" height="140" rx="16" fill="#ffffff"/>
      <text x="50" y="92" text-anchor="middle" font-family="sans-serif" font-size="58" font-weight="800" fill="#ea580c">3</text>
    </g>
    <g transform="translate(115,5) rotate(4 50 70)">
      <rect width="100" height="140" rx="16" fill="#ffffff"/>
      <text x="50" y="92" text-anchor="middle" font-family="sans-serif" font-size="58" font-weight="800" fill="#be185d">8</text>
    </g>
    <g transform="translate(235,20) rotate(-3 50 70)">
      <rect width="100" height="140" rx="16" fill="#ffffff"/>
      <text x="50" y="92" text-anchor="middle" font-family="sans-serif" font-size="58" font-weight="800" fill="#5b21b6">2</text>
    </g>
    <g transform="translate(355,0) rotate(8 50 70)">
      <rect width="100" height="140" rx="16" fill="#ffffff"/>
      <text x="50" y="92" text-anchor="middle" font-family="sans-serif" font-size="58" font-weight="800" fill="#0e7490">6</text>
    </g>
    <text x="120" y="220" font-family="sans-serif" font-size="34" font-weight="700" fill="#ffffff">= 24</text>
  </g>
</svg>
